<svg width="16" height="18" viewBox="0 0 16 18" fill="none" xmlns="http://www.w3.org/2000/svg">
<path fill-rule="evenodd" clip-rule="evenodd" d="M5.01624 10.0189L1.88629 14.105C1.6193 14.4817 1.71196 15.0009 2.09327 15.2646C2.47457 15.5284 3.00011 15.4369 3.2671 15.0602L13.7996 1.31029C14.0666 0.933602 13.9739 0.414414 13.5926 0.150652C13.2113 -0.113109 12.6858 -0.0215619 12.4188 0.355128L11.0749 2.10956H0.769657C0.14302 2.10956 -0.220054 2.81451 0.146673 3.31915L4.99738 9.99404C5.00353 10.0025 5.00982 10.0108 5.01624 10.0189ZM5.98829 8.74996L9.9059 3.63563H2.27166L5.98829 8.74996ZM5.3993 14.7939L6.93589 12.788V15.7111L9.0148 14.1653V10.3615C9.0148 10.201 9.06573 10.0446 9.16036 9.91457L14.6089 2.42571C14.8574 2.08413 15.3377 2.00731 15.6816 2.25412C16.0255 2.50094 16.1029 2.97792 15.8544 3.31949L10.5514 10.6083V14.5472C10.5514 14.7876 10.4373 15.014 10.2436 15.158L6.62806 17.8464C6.12149 18.2231 5.3993 17.8641 5.3993 17.2356V14.7939Z" fill="#AEB8C2"/>
</svg>
