<svg width="24" height="24" viewBox="0 0 24 24" fill="none" xmlns="http://www.w3.org/2000/svg">
<path fill-rule="evenodd" clip-rule="evenodd" d="M13.825 3.2478C13.3271 3.10842 12.8104 3.02656 12.283 3.00598C10.405 2.92825 8.63411 3.61053 7.27918 4.91895C5.92425 6.22737 5.18676 7.98921 5.18676 9.88059V12.5579C5.18676 13.1322 4.87375 13.659 4.36779 13.9311C3.52739 14.3802 3 15.2568 3 16.2197V17.6491C3 17.9341 3.21868 18.1716 3.50167 18.1716H8.71987C8.96856 19.7693 10.3449 21 12 21C13.6551 21 15.0357 19.7693 15.2801 18.1716H20.4983C20.7813 18.1716 21 17.9341 21 17.6491V16.2197C21 15.2611 20.4769 14.3845 19.6322 13.9311C19.1263 13.659 18.8132 13.1365 18.8132 12.5579V10.9342C18.5486 10.9775 18.2769 11 18 11C17.9306 11 17.8615 10.9986 17.7928 10.9958V12.5579C17.7928 13.5165 18.3159 14.3931 19.1606 14.8465C19.6665 15.1186 19.9795 15.6411 19.9795 16.2197V17.1352H4.02906V16.2197C4.02906 15.6454 4.34207 15.1186 4.84802 14.8465C5.68842 14.3974 6.21582 13.5208 6.21582 12.5579V9.88059C6.21582 8.27421 6.84183 6.7801 7.99095 5.666C9.14007 4.55622 10.6494 3.97758 12.2444 4.04235C12.6165 4.0573 12.9819 4.1079 13.3367 4.19237C13.4662 3.85868 13.6304 3.54234 13.825 3.2478ZM9.77037 18.1716C10.0062 19.2079 10.9152 19.9636 12.0043 19.9636C13.0934 19.9636 14.0024 19.2079 14.2382 18.1716H9.77037Z" fill="#AEB8C2"/>
<path d="M13.825 3.2478L14.0755 3.41326L14.3024 3.0697L13.9059 2.9587L13.825 3.2478ZM12.283 3.00598L12.2706 3.30594L12.2713 3.30597L12.283 3.00598ZM4.36779 13.9311L4.50929 14.1959L4.50997 14.1955L4.36779 13.9311ZM8.71987 18.1716L9.01651 18.1254L8.97697 17.8714H8.71987V18.1716ZM15.2801 18.1716V17.8714H15.0224L14.9834 18.1262L15.2801 18.1716ZM19.6322 13.9311L19.49 14.1955L19.4902 14.1956L19.6322 13.9311ZM18.8132 10.9342H19.1135V10.5809L18.7648 10.6379L18.8132 10.9342ZM17.7928 10.9958L17.805 10.6958L17.4925 10.6831V10.9958H17.7928ZM19.1606 14.8465L19.3027 14.5821L19.3025 14.582L19.1606 14.8465ZM19.9795 17.1352V17.4354H20.2797V17.1352H19.9795ZM4.02906 17.1352H3.72885V17.4354H4.02906V17.1352ZM4.84802 14.8465L4.70653 14.5818L4.70585 14.5821L4.84802 14.8465ZM7.99095 5.666L7.78239 5.45006L7.78197 5.45046L7.99095 5.666ZM12.2444 4.04235L12.2322 4.34232L12.2324 4.34232L12.2444 4.04235ZM13.3367 4.19237L13.2672 4.48442L13.5219 4.54505L13.6166 4.30094L13.3367 4.19237ZM9.77037 18.1716V17.8714H9.39416L9.47764 18.2382L9.77037 18.1716ZM14.2382 18.1716L14.5309 18.2382L14.6144 17.8714H14.2382V18.1716ZM13.9059 2.9587C13.3855 2.81299 12.8455 2.72748 12.2947 2.70599L12.2713 3.30597C12.7753 3.32563 13.2688 3.40384 13.744 3.53689L13.9059 2.9587ZM12.2954 2.70602C10.3342 2.62485 8.48383 3.33831 7.07064 4.70299L7.48772 5.13491C8.78439 3.88275 10.4757 3.23165 12.2706 3.30594L12.2954 2.70602ZM7.07064 4.70299C5.65618 6.0689 4.88654 7.90909 4.88654 9.88059H5.48697C5.48697 8.06932 6.19232 6.38584 7.48772 5.13491L7.07064 4.70299ZM4.88654 9.88059V12.5579H5.48697V9.88059H4.88654ZM4.88654 12.5579C4.88654 13.0224 4.63366 13.4473 4.22562 13.6667L4.50997 14.1955C5.11384 13.8708 5.48697 13.242 5.48697 12.5579H4.88654ZM4.2263 13.6663C3.28798 14.1677 2.69979 15.1462 2.69979 16.2197H3.30021C3.30021 15.3673 3.76681 14.5926 4.50929 14.1959L4.2263 13.6663ZM2.69979 16.2197V17.6491H3.30021V16.2197H2.69979ZM2.69979 17.6491C2.69979 18.0845 3.03791 18.4718 3.50167 18.4718V17.8714C3.39944 17.8714 3.30021 17.7836 3.30021 17.6491H2.69979ZM3.50167 18.4718H8.71987V17.8714H3.50167V18.4718ZM8.42322 18.2177C8.69396 19.9571 10.1923 21.3002 12 21.3002V20.6998C10.4975 20.6998 9.24315 19.5815 9.01651 18.1254L8.42322 18.2177ZM12 21.3002C13.807 21.3002 15.3106 19.9576 15.5769 18.217L14.9834 18.1262C14.7608 19.581 13.5031 20.6998 12 20.6998V21.3002ZM15.2801 18.4718H20.4983V17.8714H15.2801V18.4718ZM20.4983 18.4718C20.9621 18.4718 21.3002 18.0845 21.3002 17.6491H20.6998C20.6998 17.7836 20.6006 17.8714 20.4983 17.8714V18.4718ZM21.3002 17.6491V16.2197H20.6998V17.6491H21.3002ZM21.3002 16.2197C21.3002 15.1508 20.7166 14.1724 19.7742 13.6666L19.4902 14.1956C20.2372 14.5966 20.6998 15.3714 20.6998 16.2197H21.3002ZM19.7744 13.6667C19.3659 13.447 19.1135 13.0262 19.1135 12.5579H18.513C18.513 13.2468 18.8866 13.871 19.49 14.1955L19.7744 13.6667ZM19.1135 12.5579V10.9342H18.513V12.5579H19.1135ZM18 11.3002C18.2932 11.3002 18.5811 11.2764 18.8617 11.2305L18.7648 10.6379C18.5161 10.6786 18.2606 10.6998 18 10.6998V11.3002ZM17.7805 11.2957C17.8533 11.2987 17.9265 11.3002 18 11.3002V10.6998C17.9347 10.6998 17.8696 10.6985 17.805 10.6958L17.7805 11.2957ZM18.093 12.5579V10.9958H17.4925V12.5579H18.093ZM19.3025 14.582C18.5555 14.181 18.093 13.4062 18.093 12.5579H17.4925C17.4925 13.6268 18.0762 14.6052 19.0186 15.1111L19.3025 14.582ZM20.2797 16.2197C20.2797 15.5308 19.9062 14.9066 19.3027 14.5821L19.0184 15.111C19.4268 15.3306 19.6793 15.7514 19.6793 16.2197H20.2797ZM20.2797 17.1352V16.2197H19.6793V17.1352H20.2797ZM4.02906 17.4354H19.9795V16.835H4.02906V17.4354ZM3.72885 16.2197V17.1352H4.32928V16.2197H3.72885ZM4.70585 14.5821C4.10198 14.9068 3.72885 15.5356 3.72885 16.2197H4.32928C4.32928 15.7552 4.58216 15.3304 4.9902 15.111L4.70585 14.5821ZM5.9156 12.5579C5.9156 13.4103 5.44901 14.185 4.70653 14.5818L4.98952 15.1113C5.92784 14.6099 6.51603 13.6314 6.51603 12.5579H5.9156ZM5.9156 9.88059V12.5579H6.51603V9.88059H5.9156ZM7.78197 5.45046C6.57382 6.6218 5.9156 8.19397 5.9156 9.88059H6.51603C6.51603 8.35444 7.10984 6.93841 8.19992 5.88155L7.78197 5.45046ZM12.2566 3.74239C10.579 3.67426 8.9901 4.28369 7.78239 5.45006L8.1995 5.88195C9.29003 4.82875 10.7197 4.2809 12.2322 4.34232L12.2566 3.74239ZM13.4063 3.90031C13.0325 3.81134 12.6479 3.7581 12.2565 3.74238L12.2324 4.34232C12.5852 4.3565 12.9313 4.40445 13.2672 4.48442L13.4063 3.90031ZM13.5745 3.08233C13.3682 3.39453 13.1941 3.72992 13.0569 4.0838L13.6166 4.30094C13.7383 3.98744 13.8926 3.69015 14.0755 3.41326L13.5745 3.08233ZM12.0043 19.6634C11.0592 19.6634 10.2687 19.0085 10.0631 18.105L9.47764 18.2382C9.74368 19.4074 10.7712 20.2638 12.0043 20.2638V19.6634ZM13.9455 18.105C13.7399 19.0085 12.9493 19.6634 12.0043 19.6634V20.2638C13.2374 20.2638 14.2649 19.4074 14.5309 18.2382L13.9455 18.105ZM9.77037 18.4718H14.2382V17.8714H9.77037V18.4718Z" fill="#AEB8C2"/>
<path d="M18 2.5C19.933 2.5 21.5 4.067 21.5 6C21.5 7.933 19.933 9.5 18 9.5C16.067 9.5 14.5 7.933 14.5 6C14.5 4.067 16.067 2.5 18 2.5Z" fill="#FC7141"/>
</svg>
